<svg version="1.2" xmlns="http://www.w3.org/2000/svg" viewBox="0 0 8000 2000" width="8000" height="2000">
	<title>CircuitRunners</title>
	<style>
		.s0 { fill: #20d54d } 
		.s1 { fill: #000000 } 
	</style>
	<path id="Text layer 1" class="s0" aria-label="CircuitRunners"  d="m454.5 480q115.5-2.2 190.3 39.6 74.8 41.8 118.8 111.1 12.1 18.7 19.8 38.5 7.7 18.7 14.3 41.8 2.2 7.7 4.4 17.6 2.2 9.9-1.1 18.7-2.2 6.6-8.8 8.8-5.5 1.1-13.2 3.3h-8.8q-6.6 2.2-15.4 2.2-7.7-1.1-15.4-1.1-9.9 0-24.2 1.1-13.2 0-26.4 0-13.2-1.1-24.2-2.2-11-2.2-16.5-5.5-8.8-7.7-13.2-20.9-4.4-13.2-11-23.1-20.9-36.3-55-57.2-23.1-14.3-51.7-23.1-18.7-6.6-47.3-6.6-27.5 0-48.4 5.5-8.8 2.2-16.5 4.4-6.6 1.1-14.3 4.4-74.8 31.9-105.6 105.6-5.5 13.2-9.9 27.5-4.4 14.3-9.9 29.7-1.1 7.7-2.2 14.3-1.1 6.6-2.2 14.3-2.2 6.6-2.2 14.3 1.1 6.6-1.1 14.3-2.2 8.8-2.2 18.7 1.1 8.8 1.1 17.6 0 4.4-1.1 8.8 0 4.4 1.1 8.8v9.9q2.2 5.5 1.1 11 0 5.5 2.2 11 0 6.6 2.2 17.6 2.2 12.1 4.4 23.1 2.2 9.9 5.5 19.8 15.4 46.2 39.6 79.2 24.2 31.9 63.8 52.8 12.1 5.5 25.3 9.9 13.2 3.3 28.6 7.7 5.5 1.1 9.9 2.2 5.5 0 11 0h8.8q5.5 2.2 14.3 2.2 8.8-1.1 14.3-2.2 6.6 0 9.9-1.1 13.2-2.2 24.2-4.4 12.1-2.2 23.1-7.7 25.3-11 42.9-28.6 18.7-18.7 33-41.8 6.6-11 11-24.2 4.4-13.2 9.9-26.4 3.3-12.1 6.6-22 3.3-9.9 14.3-15.4 6.6-2.2 16.5-2.2 9.9 0 18.7 0h67.1q9.9 0 19.8 0 11 0 17.6 4.4 7.7 5.5 7.7 17.6 1.1 12.1-2.2 23.1l-6.6 29.7q-5.5 16.5-11 31.9-4.4 15.4-12.1 29.7-5.5 8.8-8.8 17.6-3.3 7.7-8.8 15.4-60.5 94.6-176 132-12.1 4.4-24.2 6.6-12.1 2.2-24.2 4.4-5.5 2.2-11 2.2-4.4-1.1-9.9 1.1-7.7 0-15.4 1.1-6.6 0-14.3 1.1h-17.6q-9.9 0-19.8 0-9.9 0-18.7-2.2-3.3-1.1-11-1.1-7.7-1.1-15.4-2.2-7.7-1.1-16.5-2.2-11-3.3-22-5.5-9.9-2.2-20.9-5.5-9.9-3.3-19.8-6.6-9.9-4.4-18.7-8.8-66-28.6-112.2-75.9-45.1-48.4-73.7-114.4-6.6-16.5-11-33-4.4-16.5-9.9-34.1-2.2-5.5-2.2-8.8 0-4.4-1.1-8.8-2.2-9.9-3.3-20.9-1.1-11-3.3-20.9-2.2-5.5-2.2-8.8 1.1-4.4 0-8.8v-20.9q-2.2-5.5-2.2-16.5 0-11 2.2-16.5 1.1-3.3 0-6.6 0-4.4 0-6.6v-9.9q2.2-8.8 2.2-18.7 1.1-9.9 2.2-19.8 2.2-8.8 3.3-16.5 1.1-8.8 3.3-17.6 4.4-15.4 7.7-29.7 3.3-15.4 8.8-28.6 5.5-14.3 11-28.6 6.6-14.3 14.3-26.4 17.6-30.8 36.3-55 5.5-7.7 12.1-14.3 6.6-6.6 13.2-13.2 27.5-27.5 57.2-46.2 30.8-19.8 69.3-35.2 13.2-5.5 27.5-8.8 14.3-4.4 29.7-7.7 6.6-2.2 13.2-2.2 6.6 0 12.1-2.2 8.8-1.1 16.5-1.1 8.8-1.1 17.6-2.2 2.2-1.1 5.5 0 3.3 1.1 5.5 0zm613.8 26.4q7.7 8.8 7.7 26.4 0 17.6 0 34.1 0 14.3 0 29.7 0 15.4-7.7 20.9-6.6 5.5-17.6 6.6-9.9 1.1-22 1.1h-61.6q-12.1 0-22-1.1-8.8-1.1-15.4-6.6-4.4-3.3-6.6-12.1-1.1-9.9-2.2-20.9 0-12.1 0-24.2 1.1-12.1 1.1-20.9 0-8.8 0-15.4 1.1-7.7 4.4-13.2 2.2-4.4 5.5-6.6 4.4-2.2 8.8-4.4 2.2 0 5.5 0 3.3-1.1 5.5-1.1h80.3q11 0 20.9 1.1 9.9 1.1 15.4 6.6zm7.7 255.2v460.9q0 22-1.1 37.4-1.1 15.4-19.8 20.9-6.6 2.2-14.3 2.2-7.7-1.1-16.5-1.1h-61.6q-9.9 0-19.8-1.1-8.8-1.1-13.2-6.6-6.6-7.7-7.7-18.7 0-12.1 0-25.3v-464.2q0-11 0-22 0-11 4.4-17.6 6.6-7.7 18.7-9.9 2.2-1.1 5.5 0 4.4 0 6.6-1.1h55q6.6 0 14.3 0 8.8-1.1 14.3 0h8.8q6.6 2.2 12.1 3.3 5.5 1.1 8.8 6.6 4.4 5.5 4.4 15.4 1.1 9.9 1.1 20.9zm446.6-60.5q12.1 0 20.9 2.2 9.9 2.2 15.4 9.9 6.6 8.8 6.6 30.8 0 20.9 0 37.4 0 12.1 0 27.5 1.1 15.4-3.3 24.2-4.4 7.7-13.2 9.9-7.7 2.2-18.7 2.2-9.9 0-22-1.1-11-1.1-20.9 1.1-7.7 2.2-15.4 3.3-7.7 0-14.3 2.2-17.6 5.5-35.2 16.5-17.6 9.9-27.5 23.1-5.5 8.8-12.1 18.7-5.5 8.8-11 18.7-3.3 8.8-6.6 18.7-2.2 8.8-4.4 17.6-2.2 7.7-2.2 16.5 0 7.7-2.2 15.4-1.1 4.4-1.1 8.8 1.1 3.3 0 6.6v17.6q-2.2 7.7-1.1 17.6 1.1 8.8 1.1 17.6v70.4 93.5q0 14.3-1.1 26.4-1.1 12.1-6.6 19.8-2.2 3.3-7.7 5.5-4.4 1.1-9.9 2.2h-5.5q-5.5 1.1-12.1 1.1-6.6 0-12.1 0h-47.3q-6.6-1.1-14.3-1.1-6.6 0-14.3 0-5.5-2.2-11-3.3-5.5-2.2-7.7-7.7-4.4-5.5-5.5-15.4 0-11 0-22v-74.8-310.2-81.4q0-11 0-20.9 0-11 4.4-17.6 5.5-8.8 16.5-11 11-2.2 26.4-2.2h56.1q13.2 0 23.1 2.2 9.9 1.1 15.4 9.9 3.3 5.5 3.3 15.4 1.1 9.9 2.2 19.8 1.1 8.8 3.3 16.5 3.3 7.7 11 7.7 2.2-2.2 4.4-2.2 2.2 0 4.4-2.2 6.6-5.5 11-12.1 5.5-7.7 13.2-13.2 4.4-3.3 7.7-6.6 3.3-4.4 7.7-7.7 9.9-6.6 19.8-13.2 11-6.6 22-12.1 11-4.4 22-7.7 12.1-3.3 24.2-6.6 3.3-1.1 12.1 0 9.9 0 12.1-2.2zm345.4-1.1q89.1-2.2 148.5 26.4 60.5 28.6 95.7 81.4 17.6 26.4 26.4 60.5 2.2 5.5 3.3 14.3 2.2 8.8 0 15.4-4.4 12.1-15.4 14.3-11 1.1-26.4 1.1h-57.2q-9.9 0-20.9 0-9.9 0-16.5-4.4-8.8-4.4-12.1-13.2-3.3-9.9-8.8-19.8-6.6-12.1-14.3-22-7.7-9.9-17.6-17.6-15.4-9.9-34.1-15.4-6.6-2.2-13.2-2.2-6.6 0-12.1-2.2h-11q-22 0-35.2 4.4-31.9 9.9-51.7 30.8-19.8 19.8-31.9 48.4-5.5 12.1-8.8 26.4-2.2 13.2-5.5 28.6-1.1 4.4-1.1 8.8 0 4.4-1.1 8.8-2.2 11-2.2 30.8 1.1 19.8 3.3 30.8 0 8.8 1.1 12.1 2.2 7.7 2.2 15.4 1.1 7.7 3.3 15.4 8.8 25.3 20.9 46.2 12.1 20.9 30.8 35.2 4.4 3.3 13.2 7.7 12.1 7.7 24.2 9.9 13.2 2.2 31.9 4.4 2.2 0 6.6 0 4.4 0 6.6-1.1h9.9q7.7-2.2 14.3-3.3 7.7-2.2 14.3-4.4 33-14.3 50.6-41.8 4.4-5.5 7.7-12.1 3.3-7.7 5.5-13.2 4.4-12.1 7.7-20.9 3.3-9.9 15.4-15.4 9.9-4.4 31.9-3.3 22 0 36.3 0 7.7 0 15.4 0 8.8-1.1 14.3 1.1h8.8q4.4 1.1 8.8 2.2 4.4 0 6.6 2.2 5.5 4.4 6.6 13.2 2.2 7.7 0 16.5-9.9 36.3-24.2 64.9-45.1 84.7-144.1 117.7-11 3.3-23.1 5.5-12.1 1.1-24.2 4.4-6.6 1.1-13.2 1.1-6.6 0-13.2 1.1h-12.1q-5.5 2.2-16.5 2.2-11-1.1-16.5-2.2-8.8-2.2-16.5-1.1-6.6 0-14.3-2.2-5.5-1.1-11-1.1-5.5-1.1-11-2.2-12.1-3.3-23.1-6.6-11-3.3-20.9-7.7-51.7-22-86.9-56.1-35.2-35.2-57.2-86.9-5.5-9.9-8.8-20.9-3.3-12.1-6.6-24.2-1.1-4.4-1.1-7.7 0-4.4-2.2-9.9-2.2-7.7-2.2-15.4 0-8.8-2.2-16.5v-18.7q-2.2-5.5-2.2-12.1 0-7.7 2.2-13.2 1.1-5.5 0-9.9-1.1-4.4 0-8.8 2.2-7.7 1.1-14.3 0-6.6 2.2-13.2 5.5-19.8 8.8-37.4 3.3-18.7 9.9-36.3 24.2-56.1 60.5-93.5 37.4-37.4 94.6-60.5 15.4-6.6 31.9-8.8 16.5-3.3 34.1-7.7 8.8-1.1 16.5-1.1 7.7 0 16.5-1.1zm400.4 16.5h82.5q12.1 0 22 1.1 9.9 1.1 14.3 7.7 5.5 6.6 6.6 18.7 1.1 11 1.1 23.1v77 163.9q0 39.6 3.3 74.8 3.3 35.2 19.8 58.3 15.4 23.1 49.5 33 5.5 1.1 8.8 1.1 4.4 0 9.9 1.1 5.5 1.1 12.1 1.1 6.6 0 9.9-1.1 5.5-2.2 8.8-1.1 4.4 1.1 8.8-1.1 23.1-5.5 36.3-14.3 19.8-12.1 30.8-30.8 12.1-19.8 16.5-42.9 5.5-24.2 6.6-52.8 1.1-29.7 1.1-61.6v-133.1-71.5q0-9.9 0-19.8 0-11 4.4-17.6 5.5-9.9 16.5-11 11-2.2 26.4-2.2h58.3q11 0 20.9 0 9.9 0 16.5 4.4 8.8 5.5 9.9 16.5 1.1 11 1.1 25.3v83.6 309.1 78.1q0 11 0 22 0 11-4.4 16.5-5.5 8.8-16.5 9.9-11 1.1-23.1 1.1h-59.4q-12.1 0-22-1.1-8.8-1.1-14.3-8.8-2.2-3.3-4.4-9.9-1.1-6.6-3.3-13.2-1.1-6.6-3.3-12.1-2.2-5.5-6.6-6.6-2.2-2.2-5.5-1.1-3.3 1.1-5.5 2.2-7.7 4.4-13.2 9.9-5.5 5.5-12.1 9.9-4.4 3.3-8.8 7.7-3.3 3.3-8.8 6.6-25.3 15.4-59.4 24.2-7.7 2.2-15.4 3.3-7.7 0-16.5 2.2-4.4 1.1-9.9 1.1-4.4-1.1-8.8 0-3.3 1.1-14.3 1.1-9.9-1.1-13.2-2.2-5.5 0-11 0-5.5-1.1-11-1.1-13.2-3.3-25.3-5.5-12.1-2.2-24.2-6.6-5.5-2.2-9.9-3.3-3.3-2.2-8.8-4.4-38.5-20.9-61.6-58.3-14.3-23.1-20.9-55-6.6-33-8.8-69.3-1.1-37.4-1.1-75.9 1.1-39.6 1.1-78.1v-149.6q0-14.3-1.1-33 0-19.8 5.5-28.6 3.3-5.5 13.2-9.9 6.6 0 9.9-1.1zm775.5-210.1q7.7 8.8 7.7 26.4 0 17.6 0 34.1 0 14.3 0 29.7 0 15.4-7.7 20.9-6.6 5.5-17.6 6.6-9.9 1.1-22 1.1h-61.6q-12.1 0-22-1.1-8.8-1.1-15.4-6.6-4.4-3.3-6.6-12.1-1.1-9.9-2.2-20.9 0-12.1 0-24.2 1.1-12.1 1.1-20.9 0-8.8 0-15.4 1.1-7.7 4.4-13.2 2.2-4.4 5.5-6.6 4.4-2.2 8.8-4.4 2.2 0 5.5 0 3.3-1.1 5.5-1.1h80.3q11 0 20.9 1.1 9.9 1.1 15.4 6.6zm7.7 255.2v460.9q0 22-1.1 37.4-1.1 15.4-19.8 20.9-6.6 2.2-14.3 2.2-7.7-1.1-16.5-1.1h-61.6q-9.9 0-19.8-1.1-8.8-1.1-13.2-6.6-6.6-7.7-7.7-18.7 0-12.1 0-25.3v-464.2q0-11 0-22 0-11 4.4-17.6 6.6-7.7 18.7-9.9 2.2-1.1 5.5 0 4.4 0 6.6-1.1h55q6.6 0 14.3 0 8.8-1.1 14.3 0h8.8q6.6 2.2 12.1 3.3 5.5 1.1 8.8 6.6 4.4 5.5 4.4 15.4 1.1 9.9 1.1 20.9zm199.1-215.6h73.7q16.5 0 28.6 2.2 13.2 1.1 18.7 13.2 2.2 5.5 2.2 13.2 0 7.7 0 15.4v49.5q0 5.5-1.1 13.2 0 6.6 1.1 12.1v12.1q0 8.8 1.1 16.5 1.1 6.6 5.5 12.1 7.7 9.9 27.5 11 20.9 0 39.6 0 6.6 0 13.2 0 6.6 0 12.1 2.2 12.1 5.5 13.2 19.8 2.2 14.3 2.2 31.9 0 7.7 0 15.4 1.1 7.7-1.1 13.2-5.5 17.6-23.1 18.7-17.6 1.1-39.6 1.1-4.4 0-9.9 0-4.4-1.1-7.7 0-4.4 1.1-7.7 1.1-3.3-1.1-6.6 1.1-8.8 2.2-13.2 9.9-3.3 6.6-5.5 16.5-1.1 5.5 0 12.1 1.1 6.6 0 12.1v68.2 128.7q0 27.5 1.1 48.4 2.2 19.8 14.3 35.2 5.5 6.6 14.3 9.9 9.9 2.2 19.8 4.4 3.3 1.1 6.6 1.1 4.4-1.1 6.6 0h12.1q12.1 0 20.9 1.1 8.8 1.1 14.3 8.8 4.4 6.6 4.4 17.6 0 9.9 0 20.9 0 23.1-1.1 42.9 0 18.7-17.6 25.3-5.5 2.2-9.9 2.2-4.4-1.1-9.9 1.1h-11q-2.2 0-6.6 0-4.4-1.1-7.7 0-5.5 1.1-12.1 1.1-5.5-1.1-11-1.1-5.5 0-11 1.1-5.5 0-9.9-1.1h-12.1q-5.5-1.1-12.1-1.1-6.6 0-12.1-1.1-7.7-1.1-14.3-2.2-6.6-1.1-13.2-2.2-12.1-3.3-23.1-7.7-11-4.4-20.9-9.9-3.3-2.2-6.6-4.4-3.3-3.3-7.7-6.6-2.2-2.2-5.5-4.4-3.3-3.3-5.5-5.5-15.4-20.9-23.1-46.2-2.2-4.4-2.2-7.7 1.1-4.4 0-9.9-1.1-2.2-1.1-5.5 0-3.3-1.1-5.5v-11q-1.1-4.4-1.1-9.9 1.1-5.5 1.1-11v-41.8-163.9-58.3q0-7.7 0-15.4 1.1-7.7-1.1-14.3-4.4-15.4-15.4-19.8-12.1-5.5-30.8-3.3-18.7 2.2-31.9-3.3-8.8-3.3-11-9.9-2.2-6.6-4.4-16.5v-23.1q0-19.8 2.2-31.9 2.2-12.1 18.7-16.5 4.4-2.2 8.8-1.1 4.4 0 9.9 0 16.5 0 30.8-1.1 14.3-2.2 19.8-13.2 3.3-7.7 3.3-17.6 1.1-9.9 1.1-19.8v-68.2q0-8.8 0-18.7 0-9.9 2.2-16.5 5.5-11 16.5-14.3 2.2-1.1 5.5 0 4.4 0 6.6-1.1z"/>
	<path id="Text layer 1" class="s1" aria-label="CircuitRunners"  d="m4240.7 1257.7q2.2 6.6-1.1 12.1-2.2 5.5-5.5 7.7-6.6 5.5-18.7 5.5-11-1.1-23.1-1.1h-60.5q-17.6 0-30.8-1.1-13.2-2.2-19.8-13.2-8.8-14.3-9.9-35.2-1.1-20.9-5.5-39.6 0-4.4-1.1-7.7 0-4.4 0-7.7-3.3-13.2-3.3-27.5 0-15.4-2.2-27.5-1.1-3.3-1.1-9.9-2.2-12.1-4.4-24.2-1.1-13.2-4.4-25.3-8.8-25.3-20.9-45.1-12.1-19.8-34.1-29.7-5.5-2.2-11-3.3-5.5-1.1-12.1-3.3-19.8-6.6-46.2-6.6-25.3 0-50.6 0h-90.2q-8.8 2.2-15.4 3.3-6.6 1.1-11 6.6-8.8 11-7.7 34.1 1.1 23.1 1.1 41.8v140.8q0 8.8-1.1 18.7 0 8.8 0 17.6 0 8.8 0 16.5 0 6.6-2.2 12.1-3.3 9.9-13.2 13.2-5.5 2.2-13.2 2.2-7.7 0-16.5 0h-49.5q-17.6 0-37.4 1.1-19.8 0-29.7-7.7-8.8-5.5-8.8-19.8 0-15.4 0-29.7v-668.8q0-12.1-1.1-25.3 0-13.2 5.5-20.9 4.4-6.6 16.5-11 2.2-1.1 4.4 0 3.3 0 5.5-1.1h374q17.6 0 33 1.1 16.5 0 30.8 3.3 5.5 2.2 11 2.2 6.6 0 12.1 2.2 7.7 2.2 15.4 4.4 7.7 2.2 15.4 5.5 27.5 12.1 50.6 29.7 23.1 17.6 38.5 40.7 4.4 5.5 6.6 12.1 3.3 5.5 7.7 11 8.8 15.4 13.2 31.9 4.4 16.5 9.9 36.3 1.1 4.4 0 8.8 0 4.4 2.2 8.8v9.9q2.2 8.8 1.1 22-1.1 12.1-3.3 19.8-2.2 8.8-2.2 16.5 0 6.6-2.2 14.3-5.5 16.5-11 31.9-5.5 14.3-14.3 27.5-2.2 3.3-5.5 7.7-3.3 3.3-5.5 6.6-3.3 4.4-7.7 8.8-3.3 4.4-7.7 7.7-6.6 5.5-13.2 11-6.6 5.5-14.3 11-4.4 3.3-8.8 7.7-4.4 3.3-6.6 8.8-2.2 6.6 2.2 11 4.4 4.4 7.7 6.6 11 8.8 22 17.6 11 8.8 18.7 20.9 13.2 18.7 20.9 38.5 7.7 19.8 14.3 45.1 2.2 9.9 2.2 20.9 1.1 11 3.3 20.9 0 6.6 0 13.2 1.1 5.5 1.1 12.1 1.1 4.4 0 9.9 0 4.4 1.1 9.9 1.1 4.4 0 8.8 0 4.4 1.1 9.9 2.2 11 2.2 23.1 0 12.1 2.2 23.1l3.3 19.8q2.2 9.9 4.4 19.8 2.2 9.9 4.4 18.7zm-181.5-496.1q2.2-12.1 0-29.7-1.1-17.6-3.3-26.4-2.2-4.4-2.2-7.7 0-3.3-2.2-6.6-13.2-34.1-48.4-49.5-18.7-8.8-42.9-9.9-24.2-1.1-50.6-1.1h-127.6q-2.2 2.2-4.4 2.2-2.2-1.1-4.4-1.1-13.2 3.3-17.6 11-5.5 8.8-5.5 23.1 1.1 13.2 1.1 26.4v102.3q0 13.2 0 26.4 0 13.2 5.5 20.9 4.4 6.6 14.3 8.8 9.9 2.2 22 3.3 12.1 1.1 25.3 1.1 13.2-1.1 23.1-1.1h64.9q7.7 0 16.5 1.1 8.8 0 15.4-2.2h14.3q8.8-2.2 16.5-2.2 8.8 0 16.5-2.2 18.7-5.5 33-14.3 14.3-8.8 24.2-23.1 6.6-9.9 9.9-22 3.3-12.1 6.6-27.5zm326.7-45.1h82.5q12.1 0 22 1.1 9.9 1.1 14.3 7.7 5.5 6.6 6.6 18.7 1.1 11 1.1 23.1v77 163.9q0 39.6 3.3 74.8 3.3 35.2 19.8 58.3 15.4 23.1 49.5 33 5.5 1.1 8.8 1.1 4.4 0 9.9 1.1 5.5 1.1 12.1 1.1 6.6 0 9.9-1.1 5.5-2.2 8.8-1.1 4.4 1.1 8.8-1.1 23.1-5.5 36.3-14.3 19.8-12.1 30.8-30.8 12.1-19.8 16.5-42.9 5.5-24.2 6.6-52.8 1.1-29.7 1.1-61.6v-133.1-71.5q0-9.9 0-19.8 0-11 4.4-17.6 5.5-9.9 16.5-11 11-2.2 26.4-2.2h58.3q11 0 20.9 0 9.9 0 16.5 4.4 8.8 5.5 9.9 16.5 1.1 11 1.1 25.3v83.6 309.1 78.1q0 11 0 22 0 11-4.4 16.5-5.5 8.8-16.5 9.9-11 1.1-23.1 1.1h-59.4q-12.1 0-22-1.1-8.8-1.1-14.3-8.8-2.2-3.3-4.4-9.9-1.1-6.6-3.3-13.2-1.1-6.6-3.3-12.1-2.2-5.5-6.6-6.6-2.2-2.2-5.5-1.1-3.3 1.1-5.5 2.2-7.7 4.4-13.2 9.9-5.5 5.5-12.1 9.9-4.4 3.3-8.8 7.7-3.3 3.3-8.8 6.6-25.3 15.4-59.4 24.2-7.7 2.2-15.4 3.3-7.7 0-16.5 2.2-4.4 1.1-9.9 1.1-4.4-1.1-8.8 0-3.3 1.1-14.3 1.1-9.9-1.1-13.2-2.2-5.5 0-11 0-5.5-1.1-11-1.1-13.2-3.3-25.3-5.5-12.1-2.2-24.2-6.6-5.5-2.2-9.9-3.3-3.3-2.2-8.8-4.4-38.5-20.9-61.6-58.3-14.3-23.1-20.9-55-6.6-33-8.8-69.3-1.1-37.4-1.1-75.9 1.1-39.6 1.1-78.1v-149.6q0-14.3-1.1-33 0-19.8 5.5-28.6 3.3-5.5 13.2-9.9 6.6 0 9.9-1.1zm946-15.4q66-2.2 110 18.7 44 20.9 69.3 61.6 7.7 12.1 12.1 26.4 4.4 13.2 8.8 27.5 2.2 8.8 2.2 16.5 1.1 7.7 3.3 15.4 0 6.6 1.1 8.8 2.2 15.4 2.2 31.9 0 16.5 0 31.9v97.9 178.2q0 20.9-1.1 40.7 0 18.7-15.4 24.2-6.6 2.2-15.4 2.2-8.8 0-17.6 0h-59.4q-13.2 0-24.2-1.1-9.9-2.2-15.4-9.9-4.4-6.6-5.5-16.5 0-11 0-23.1v-77-163.9q0-40.7-3.3-74.8-3.3-35.2-19.8-59.4-15.4-22-45.1-30.8-5.5-2.2-12.1-2.2-5.5 0-12.1-2.2-5.5-1.1-14.3 0-7.7 0-12.1 1.1-4.4 1.1-7.7 1.1-3.3 0-6.6 1.1-25.3 6.6-40.7 17.6-35.2 25.3-41.8 73.7-6.6 48.4-6.6 108.9v137.5 67.1q0 9.9 0 19.8 0 9.9-3.3 16.5-5.5 12.1-17.6 14.3-12.1 2.2-29.7 2.2h-55q-12.1 0-24.2-1.1-12.1-1.1-17.6-7.7-7.7-9.9-7.7-28.6 1.1-18.7 1.1-35.2v-149.6-242-56.1q0-12.1 0-22 1.1-9.9 6.6-16.5 2.2-3.3 6.6-4.4 5.5-2.2 11-3.3h5.5q5.5-1.1 11-1.1 6.6 0 12.1 0h46.2q8.8 0 16.5 1.1 8.8 0 15.4 2.2 7.7 3.3 9.9 9.9 3.3 6.6 5.5 15.4 1.1 4.4 0 7.7 0 3.3 2.2 6.6 2.2 5.5 3.3 6.6 2.2 1.1 5.5 3.3 12.1 1.1 19.8-7.7 7.7-9.9 16.5-15.4 29.7-22 66-35.2 9.9-3.3 19.8-4.4 11-1.1 23.1-3.3 3.3-1.1 9.9 0 6.6 0 8.8-1.1zm652.3 0q66-2.2 110 18.7 44 20.9 69.3 61.6 7.7 12.1 12.1 26.4 4.4 13.2 8.8 27.5 2.2 8.8 2.2 16.5 1.1 7.7 3.3 15.4 0 6.6 1.1 8.8 2.2 15.4 2.2 31.9 0 16.5 0 31.9v97.9 178.2q0 20.9-1.1 40.7 0 18.7-15.4 24.2-6.6 2.2-15.4 2.2-8.8 0-17.6 0h-59.4q-13.2 0-24.2-1.1-9.9-2.2-15.4-9.9-4.4-6.6-5.5-16.5 0-11 0-23.1v-77-163.9q0-40.7-3.3-74.8-3.3-35.2-19.8-59.4-15.4-22-45.1-30.8-5.5-2.2-12.1-2.2-5.5 0-12.1-2.2-5.5-1.1-14.3 0-7.7 0-12.1 1.1-4.4 1.1-7.7 1.1-3.3 0-6.6 1.1-25.3 6.6-40.7 17.6-35.2 25.3-41.8 73.7-6.6 48.4-6.6 108.9v137.5 67.1q0 9.9 0 19.8 0 9.9-3.3 16.5-5.5 12.1-17.6 14.3-12.1 2.2-29.7 2.2h-55q-12.1 0-24.2-1.1-12.1-1.1-17.6-7.7-7.7-9.9-7.7-28.6 1.1-18.7 1.1-35.2v-149.6-242-56.1q0-12.1 0-22 1.1-9.9 6.6-16.5 2.2-3.3 6.6-4.4 5.5-2.2 11-3.3h5.5q5.5-1.1 11-1.1 6.6 0 12.1 0h46.2q8.8 0 16.5 1.1 8.8 0 15.4 2.2 7.7 3.3 9.9 9.9 3.3 6.6 5.5 15.4 1.1 4.4 0 7.7 0 3.3 2.2 6.6 2.2 5.5 3.3 6.6 2.2 1.1 5.5 3.3 12.1 1.1 19.8-7.7 7.7-9.9 16.5-15.4 29.7-22 66-35.2 9.9-3.3 19.8-4.4 11-1.1 23.1-3.3 3.3-1.1 9.9 0 6.6 0 8.8-1.1zm867.9 280.5v12.1q2.2 8.8 0 19.8-2.2 11-7.7 14.3-5.5 4.4-16.5 6.6-9.9 1.1-23.1 2.2-12.1 0-25.3 0-12.1-1.1-22-1.1h-268.4q-7.7 0-15.4 0-6.6 0-12.1 2.2-8.8 4.4-11 8.8-2.2 2.2-4.4 8.8-2.2 5.5-1.1 11 2.2 6.6 2.2 13.2 1.1 5.5 3.3 12.1 8.8 26.4 20.9 44 13.2 16.5 35.2 29.7 8.8 5.5 17.6 7.7 9.9 1.1 19.8 4.4 8.8 2.2 24.2 3.3 15.4 1.1 26.4-1.1h9.9q11-2.2 19.8-4.4 9.9-3.3 18.7-6.6 11-5.5 24.2-14.3 14.3-8.8 20.9-17.6 5.5-7.7 11-14.3 6.6-7.7 15.4-11 11-5.5 27.5-4.4 17.6 0 31.9 0 6.6 0 13.2 0 7.7-1.1 13.2 1.1h11q11 2.2 15.4 5.5 4.4 2.2 4.4 9.9 1.1 7.7-1.1 13.2-5.5 15.4-12.1 27.5-6.6 12.1-15.4 24.2-24.2 36.3-55 58.3-30.8 22-77 37.4-12.1 4.4-24.2 5.5-12.1 1.1-25.3 4.4-4.4 1.1-9.9 1.1-4.4-1.1-8.8 0h-12.1q-5.5 2.2-13.2 2.2-6.6-1.1-12.1-2.2-8.8-1.1-15.4 0-6.6 1.1-14.3-1.1-5.5-2.2-12.1-2.2-6.6 0-12.1-2.2-12.1-2.2-24.2-4.4-12.1-3.3-22-8.8-12.1-4.4-23.1-7.7-9.9-4.4-18.7-9.9-35.2-22-62.7-50.6-27.5-29.7-45.1-68.2-5.5-12.1-8.8-24.2-3.3-13.2-8.8-26.4-1.1-4.4-1.1-7.7 0-4.4-1.1-8.8-4.4-13.2-5.5-28.6-1.1-15.4-2.2-30.8 0-5.5-1.1-12.1 0-6.6 1.1-12.1v-13.2l3.3-26.4q4.4-18.7 7.7-36.3 3.3-17.6 9.9-33 47.3-114.4 160.6-161.7 15.4-6.6 30.8-8.8 16.5-3.3 34.1-7.7 8.8-1.1 16.5-1.1 7.7 0 16.5-1.1 56.1-1.1 95.7 13.2 40.7 13.2 72.6 35.2 9.9 6.6 19.8 15.4 9.9 7.7 17.6 16.5 3.3 5.5 8.8 8.8 8.8 12.1 16.5 25.3 7.7 12.1 16.5 25.3 5.5 9.9 8.8 20.9 4.4 9.9 8.8 22 5.5 14.3 8.8 29.7 3.3 15.4 7.7 30.8 2.2 8.8 1.1 19.8 0 9.9 2.2 18.7zm-165-52.8q7.7-11 1.1-26.4-5.5-16.5-8.8-24.2-15.4-29.7-40.7-45.1-25.3-16.5-70.4-17.6-3.3 2.2-7.7 1.1-4.4-1.1-7.7 0-5.5 2.2-12.1 3.3-6.6 0-12.1 2.2-48.4 15.4-71.5 60.5-2.2 4.4-5.5 12.1-2.2 6.6-3.3 14.3-1.1 6.6 0 13.2 2.2 6.6 7.7 11 8.8 5.5 24.2 5.5 15.4 0 29.7 0h122.1q15.4 0 31.9 0 17.6-1.1 23.1-9.9zm580.8-227.7q12.1 0 20.9 2.2 9.9 2.2 15.4 9.9 6.6 8.8 6.6 30.8 0 20.9 0 37.4 0 12.1 0 27.5 1.1 15.4-3.3 24.2-4.4 7.7-13.2 9.9-7.7 2.2-18.7 2.2-9.9 0-22-1.1-11-1.1-20.9 1.1-7.7 2.2-15.4 3.3-7.7 0-14.3 2.2-17.6 5.5-35.2 16.5-17.6 9.9-27.5 23.1-5.5 8.8-12.1 18.7-5.5 8.8-11 18.7-3.3 8.8-6.6 18.7-2.2 8.8-4.4 17.6-2.2 7.7-2.2 16.5 0 7.7-2.2 15.4-1.1 4.4-1.1 8.8 1.1 3.3 0 6.6v17.6q-2.2 7.7-1.1 17.6 1.1 8.8 1.1 17.6v70.4 93.5q0 14.3-1.1 26.4-1.1 12.1-6.6 19.8-2.2 3.3-7.7 5.5-4.4 1.1-9.9 2.2h-5.5q-5.5 1.1-12.1 1.1-6.6 0-12.1 0h-47.3q-6.6-1.1-14.3-1.1-6.6 0-14.3 0-5.5-2.2-11-3.3-5.5-2.2-7.7-7.7-4.4-5.5-5.5-15.4 0-11 0-22v-74.8-310.2-81.4q0-11 0-20.9 0-11 4.4-17.6 5.5-8.8 16.5-11 11-2.2 26.4-2.2h56.1q13.2 0 23.1 2.2 9.9 1.1 15.4 9.9 3.3 5.5 3.3 15.4 1.1 9.9 2.2 19.8 1.1 8.8 3.3 16.5 3.3 7.7 11 7.7 2.2-2.2 4.4-2.2 2.2 0 4.4-2.2 6.6-5.5 11-12.1 5.5-7.7 13.2-13.2 4.4-3.3 7.7-6.6 3.3-4.4 7.7-7.7 9.9-6.6 19.8-13.2 11-6.6 22-12.1 11-4.4 22-7.7 12.1-3.3 24.2-6.6 3.3-1.1 12.1 0 9.9 0 12.1-2.2zm321.2-1.1q82.5-2.2 143 18.7 61.6 19.8 93.5 69.3 7.7 12.1 13.2 25.3 6.6 12.1 11 27.5 2.2 6.6 2.2 14.3 0 7.7-2.2 13.2-4.4 6.6-12.1 8.8-5.5 2.2-13.2 2.2-7.7 0-15.4 0h-48.4q-7.7 0-15.4 1.1-7.7 0-14.3-2.2-11-2.2-16.5-8.8-5.5-6.6-9.9-13.2-4.4-7.7-8.8-15.4-3.3-8.8-11-14.3-11-8.8-22-13.2-9.9-4.4-25.3-7.7-7.7-2.2-23.1-3.3-14.3-1.1-22 1.1h-7.7q-5.5 1.1-11 2.2-4.4 0-9.9 1.1-18.7 5.5-30.8 15.4-11 8.8-15.4 27.5-2.2 7.7 0 14.3 2.2 6.6 4.4 11 7.7 13.2 17.6 20.9 11 7.7 25.3 13.2 20.9 8.8 45.1 15.4 25.3 5.5 50.6 11 26.4 4.4 50.6 11 25.3 5.5 47.3 14.3 9.9 4.4 18.7 7.7 9.9 2.2 18.7 7.7 20.9 13.2 37.4 28.6 17.6 15.4 27.5 38.5 3.3 7.7 5.5 15.4 2.2 7.7 4.4 16.5 1.1 6.6 1.1 20.9 1.1 13.2 0 20.9v5.5q-2.2 6.6-3.3 13.2 0 5.5-1.1 11-7.7 33-24.2 58.3-17.6 26.4-42.9 42.9-25.3 16.5-57.2 28.6-12.1 5.5-26.4 7.7-13.2 2.2-26.4 5.5-9.9 2.2-20.9 3.3-9.9 0-19.8 2.2h-19.8q-6.6 2.2-23.1 2.2-15.4 0-22-2.2-3.3 0-7.7 0-3.3-1.1-7.7-1.1-13.2-2.2-26.4-3.3-13.2-1.1-25.3-4.4-42.9-12.1-75.9-27.5-33-16.5-56.1-48.4-15.4-20.9-26.4-48.4-2.2-6.6-4.4-17.6-2.2-5.5-3.3-15.4-1.1-9.9 1.1-16.5 3.3-7.7 11-11 5.5-2.2 13.2-2.2 7.7 0 16.5 0h51.7q8.8 0 17.6 0 8.8 0 15.4 2.2 12.1 4.4 15.4 14.3 4.4 9.9 9.9 20.9 2.2 5.5 7.7 14.3 6.6 8.8 11 11 13.2 11 25.3 17.6 12.1 5.5 30.8 11 5.5 2.2 11 2.2 5.5-1.1 11 0 8.8 2.2 18.7 2.2 11-1.1 18.7-3.3 5.5-1.1 9.9-1.1 5.5 0 11-2.2 15.4-5.5 27.5-13.2 13.2-7.7 20.9-19.8 5.5-8.8 8.8-27.5 2.2-7.7 0-14.3-2.2-6.6-4.4-11-7.7-15.4-19.8-23.1-11-7.7-26.4-14.3-20.9-8.8-44-14.3-23.1-5.5-46.2-12.1-8.8-2.2-18.7-3.3-8.8-1.1-17.6-3.3-35.2-9.9-67.1-18.7-31.9-9.9-58.3-28.6-30.8-22-45.1-59.4-2.2-7.7-4.4-20.9-2.2-7.7-3.3-18.7-1.1-11 1.1-19.8 2.2-5.5 1.1-8.8-1.1-4.4 1.1-9.9 2.2-12.1 4.4-22 3.3-11 7.7-20.9 14.3-31.9 39.6-51.7 25.3-19.8 57.2-31.9 12.1-5.5 25.3-7.7 13.2-3.3 27.5-6.6 6.6-2.2 13.2-2.2 6.6-1.1 13.2-2.2 8.8-1.1 18.7-1.1 9.9 0 18.7-1.1z"/>
</svg>