<svg id="svg" version="1.1" xmlns="http://www.w3.org/2000/svg" style="display: block;" viewBox="0 0 950 150"><path d="M0 0 C313.5 0 627 0 950 0 C950 49.5 950 99 950 150 C636.5 150 323 150 0 150 C0 100.5 0 51 0 0 Z " transform="translate(0,0)" style="fill: #FDFEFD;"/><path d="M0 0 C8.91 -0.061875 17.82 -0.12375 27 -0.1875 C31.19783203 -0.22846802 31.19783203 -0.22846802 35.48046875 -0.27026367 C37.71614145 -0.27903133 39.95181897 -0.2866746 42.1875 -0.29296875 C43.90743164 -0.3159906 43.90743164 -0.3159906 45.66210938 -0.33947754 C53.40720164 -0.34199436 59.02381635 0.50332654 65.6875 4.6875 C71.08263238 10.08263238 74.12276878 15.90335004 74.3125 23.5625 C74.23119095 29.67546185 73.35201298 34.80622165 70 40 C67.5248394 42.36179446 64.93380684 44.24826096 62 46 C62.7425 46.53625 63.485 47.0725 64.25 47.625 C69.50811442 52.16609882 72.04533343 57.17362075 73 64 C73.28501029 67.96949113 73.49953174 71.92561797 73.65625 75.90234375 C73.97978105 80.86219071 73.97978105 80.86219071 76 89 C69.73 89 63.46 89 57 89 C55.64390741 84.93172222 54.73341485 82.06970624 54.25390625 77.99609375 C54.08084961 76.63774414 54.08084961 76.63774414 53.90429688 75.25195312 C53.67602097 73.3722641 53.45207702 71.49204403 53.23242188 69.61132812 C52.43551585 62.79979859 52.43551585 62.79979859 49 57 C45.28817358 55.17733671 42.15310081 54.7124031 38.04296875 54.5859375 C37.04031982 54.55032715 36.0376709 54.5147168 35.00463867 54.47802734 C33.11515503 54.42702881 33.11515503 54.42702881 31.1875 54.375 C27.165625 54.25125 23.14375 54.1275 19 54 C19 65.55 19 77.1 19 89 C12.73 89 6.46 89 0 89 C0 59.63 0 30.26 0 0 Z " transform="translate(428,33)" style="fill: #242020;"/><path d="M0 0 C1.49950195 -0.04350586 1.49950195 -0.04350586 3.02929688 -0.08789062 C14.09677358 -0.18137808 21.71520108 3.18064592 29.66796875 10.8203125 C36.14125346 17.9286699 37.84943492 22.51991426 38.9375 32.3125 C32.6675 32.3125 26.3975 32.3125 19.9375 32.3125 C19.380625 30.91 18.82375 29.5075 18.25 28.0625 C16.03583525 23.09622201 13.60892451 20.56189072 8.640625 18.23828125 C2.51301572 16.13966362 -4.65800122 16.26376886 -10.5625 19 C-17.35183641 23.03993572 -20.33664194 29.89958155 -22.6640625 37.19921875 C-24.65492231 47.75858304 -23.10843334 59.31778322 -17.0625 68.3125 C-13.10154176 72.48145376 -9.83040522 75.13370364 -3.91796875 75.515625 C-2.70753906 75.53109375 -1.49710938 75.5465625 -0.25 75.5625 C1.55404297 75.60117188 1.55404297 75.60117188 3.39453125 75.640625 C8.23842846 75.1920171 11.53151061 73.63578413 15.0625 70.3125 C17.82634744 65.89034409 19.27144944 61.25114986 20.9375 56.3125 C27.2075 56.3125 33.4775 56.3125 39.9375 56.3125 C38.26179192 69.71816461 34.53548428 78.2268094 23.9609375 86.94140625 C14.18928564 93.6770099 2.41219185 94.34302228 -9.0625 93.3125 C-20.01470948 90.91034253 -29.68920913 84.54661969 -36.0625 75.3125 C-43.52077813 61.76098669 -45.17829665 46.75703645 -42.375 31.59375 C-39.15139425 21.17075808 -32.64121111 11.09739483 -23.0546875 5.58203125 C-14.89608273 1.443751 -9.06802222 0.08538627 0 0 Z " transform="translate(73.0625,30.6875)" style="fill: #13B24E;"/><path d="M0 0 C9.92296906 0.67274367 17.14988675 4.46029713 23.9375 11.625 C30.27586824 21.13255237 30.6875 27.10642655 30.6875 39.25 C15.5075 39.25 0.3275 39.25 -15.3125 39.25 C-13.7352947 47.97229865 -13.7352947 47.97229865 -8.3125 53.25 C-4.38478597 55.21385701 0.39638768 54.58941001 4.6875 54.25 C9.10100821 52.70935476 9.10100821 52.70935476 11.83203125 49.15625 C13.6875 47.25 13.6875 47.25 17.48046875 46.859375 C18.94582231 46.88589724 20.41091551 46.93350883 21.875 47 C22.62458984 47.01804688 23.37417969 47.03609375 24.14648438 47.0546875 C25.9940371 47.10175891 27.84093159 47.17350234 29.6875 47.25 C26.96500241 55.65423169 23.79446896 61.26018459 16.05859375 65.7890625 C6.58552266 70.30485404 -3.093175 70.87443712 -13.125 67.75 C-20.89194459 64.49658958 -27.29694733 59.0633988 -30.60546875 51.22265625 C-34.02754341 41.67487889 -35.25658228 30.71166248 -31.875 20.9375 C-27.81425018 12.388553 -21.30667576 5.87350605 -12.66015625 2.078125 C-8.43108411 0.58633916 -4.43005859 0.33434404 0 0 Z " transform="translate(769.3125,54.75)" style="fill: #262222;"/><path d="M0 0 C5.94 0 11.88 0 18 0 C18.01458252 1.26593994 18.02916504 2.53187988 18.04418945 3.83618164 C18.10236122 8.55342204 18.17959293 13.27019451 18.26245117 17.98706055 C18.29561184 20.02474345 18.32367112 22.06251624 18.34643555 24.1003418 C18.38014462 27.03733463 18.43246874 29.97351023 18.48828125 32.91015625 C18.49467117 33.81459976 18.5010611 34.71904327 18.50764465 35.65089417 C18.63446945 41.16340114 19.39461514 45.11223187 22 50 C25.28248596 52.69632775 28.9029318 52.35319553 33 52 C36.33333333 51.16666667 36.33333333 51.16666667 39 49 C41.81295119 42.96955529 42.46244746 37.84683895 42.51171875 31.25 C42.52966995 30.35128174 42.54762115 29.45256348 42.56611633 28.52661133 C42.61986305 25.68445386 42.65399974 22.84246083 42.6875 20 C42.7207046 18.06117521 42.75519713 16.12237202 42.79101562 14.18359375 C42.87796986 9.45571018 42.93834175 4.72855024 43 0 C48.94 0 54.88 0 61 0 C61 21.45 61 42.9 61 65 C55.39 65 49.78 65 44 65 C43.505 61.04 43.505 61.04 43 57 C42.54625 57.721875 42.0925 58.44375 41.625 59.1875 C36.4672748 64.71363415 30.4870566 67.29252863 22.9375 67.5625 C15.67513052 67.21711739 10.43966653 65.28055784 5.125 60.3125 C0.2570132 52.72416763 -0.42969027 45.48184867 -0.29296875 36.62109375 C-0.28660149 35.04208031 -0.28660149 35.04208031 -0.28010559 33.4311676 C-0.26343768 30.09967458 -0.2258075 26.76880732 -0.1875 23.4375 C-0.17243781 21.16602442 -0.1587521 18.89453927 -0.14648438 16.62304688 C-0.11357309 11.08179356 -0.06187342 5.54100254 0 0 Z " transform="translate(516,57)" style="fill: #252121;"/><path d="M0 0 C5.94 0 11.88 0 18 0 C18.01458252 1.26593994 18.02916504 2.53187988 18.04418945 3.83618164 C18.10236122 8.55342204 18.17959293 13.27019451 18.26245117 17.98706055 C18.29561184 20.02474345 18.32367112 22.06251624 18.34643555 24.1003418 C18.38014462 27.03733463 18.43246874 29.97351023 18.48828125 32.91015625 C18.49467117 33.81459976 18.5010611 34.71904327 18.50764465 35.65089417 C18.63428544 41.155403 19.3188725 45.15056352 22 50 C25.7351225 52.49008167 28.67841678 52.50745864 33 52 C37.11222596 50.68098413 38.559625 49.80865757 40.63598633 45.99584961 C42.45870197 41.43432246 42.47653555 36.9883739 42.51171875 32.12890625 C42.52966995 31.206577 42.54762115 30.28424774 42.56611633 29.33396912 C42.61996736 26.41019152 42.65403385 23.4865748 42.6875 20.5625 C42.72069534 18.57094128 42.75518704 16.57940371 42.79101562 14.58789062 C42.87810182 9.72524049 42.93838538 4.86330536 43 0 C48.94 0 54.88 0 61 0 C61 21.45 61 42.9 61 65 C55.39 65 49.78 65 44 65 C43.505 61.04 43.505 61.04 43 57 C42.54625 57.721875 42.0925 58.44375 41.625 59.1875 C36.4672748 64.71363415 30.4870566 67.29252863 22.9375 67.5625 C15.65790081 67.21629798 10.40003976 65.2956902 5.125 60.25 C0.17660632 52.68186849 -0.42562381 46.32883088 -0.29296875 37.5 C-0.28872391 36.42371338 -0.28447906 35.34742676 -0.28010559 34.23852539 C-0.26341025 30.8254213 -0.22577443 27.41292345 -0.1875 24 C-0.17244137 21.67578982 -0.15875503 19.35157032 -0.14648438 17.02734375 C-0.11353659 11.35133149 -0.06181718 5.67576828 0 0 Z " transform="translate(275,57)" style="fill: #13B24E;"/><path d="M0 0 C0.7425 -0.01611328 1.485 -0.03222656 2.25 -0.04882812 C7.94722599 -0.05386101 12.05783355 1.04703046 16.453125 4.92578125 C16.92234375 5.48652344 17.3915625 6.04726563 17.875 6.625 C18.35453125 7.17800781 18.8340625 7.73101562 19.328125 8.30078125 C23.27792051 14.42772308 22.888489 20.81708419 22.8203125 27.8359375 C22.8174826 28.93725006 22.81465271 30.03856262 22.81173706 31.17324829 C22.80057478 34.67811108 22.77547711 38.18271492 22.75 41.6875 C22.73996511 44.06900672 22.73084015 46.45051745 22.72265625 48.83203125 C22.70064832 54.65895339 22.66614537 60.48568284 22.625 66.3125 C16.685 66.3125 10.745 66.3125 4.625 66.3125 C4.61041748 64.97550049 4.59583496 63.63850098 4.58081055 62.26098633 C4.52277876 57.29408201 4.44554565 52.32762871 4.36254883 47.36108398 C4.32932254 45.21272102 4.30128347 43.06427125 4.27856445 40.91577148 C4.24497669 37.82498224 4.19265779 34.73498688 4.13671875 31.64453125 C4.13032883 30.68601761 4.1239389 29.72750397 4.11735535 28.73994446 C4.00946582 23.83139637 3.90062343 20.25379035 0.625 16.3125 C-3.59510749 14.20244625 -8.80303161 14.66632847 -13.375 15.3125 C-16.51806492 17.27198398 -17.96921118 19.85643422 -18.96850586 23.44213867 C-19.53987541 27.47672833 -19.61129222 31.480269 -19.69140625 35.55078125 C-19.71218735 36.43154831 -19.73296844 37.31231537 -19.75437927 38.21977234 C-19.81953937 41.02143879 -19.87860321 43.82319557 -19.9375 46.625 C-19.98071715 48.52930606 -20.02433244 50.43360312 -20.06835938 52.33789062 C-20.17593233 56.99600268 -20.27525481 61.65418747 -20.375 66.3125 C-26.315 66.3125 -32.255 66.3125 -38.375 66.3125 C-38.375 44.8625 -38.375 23.4125 -38.375 1.3125 C-32.765 1.3125 -27.155 1.3125 -21.375 1.3125 C-21.045 3.9525 -20.715 6.5925 -20.375 9.3125 C-19.84390625 8.83039063 -19.3128125 8.34828125 -18.765625 7.8515625 C-18.05921875 7.21992187 -17.3528125 6.58828125 -16.625 5.9375 C-15.92890625 5.31101562 -15.2328125 4.68453125 -14.515625 4.0390625 C-9.816146 0.24860681 -5.9540794 -0.02557594 0 0 Z " transform="translate(628.375,55.6875)" style="fill: #262323;"/><path d="M0 0 C5.40931259 2.88565624 7.93273196 7.86069587 9.8125 13.5 C9.90004798 15.17220971 9.93015995 16.84772199 9.92602539 18.5222168 C9.92594986 19.54304855 9.92587433 20.56388031 9.92579651 21.61564636 C9.92063522 22.71572525 9.91547394 23.81580414 9.91015625 24.94921875 C9.9087413 26.0769722 9.90732635 27.20472565 9.90586853 28.36665344 C9.9002647 31.97362912 9.88771153 35.58054304 9.875 39.1875 C9.86998549 41.63085848 9.8654225 44.07421793 9.86132812 46.51757812 C9.85029403 52.51174259 9.83302679 58.50586082 9.8125 64.5 C4.2025 64.5 -1.4075 64.5 -7.1875 64.5 C-7.20208252 63.22882324 -7.21666504 61.95764648 -7.23168945 60.64794922 C-7.28979807 55.91768708 -7.36703048 51.1878947 -7.44995117 46.45800781 C-7.48314141 44.4134892 -7.51119163 42.36888026 -7.53393555 40.32421875 C-7.56758993 37.37981794 -7.61991166 34.43624046 -7.67578125 31.4921875 C-7.68217117 30.5825827 -7.6885611 29.67297791 -7.69514465 28.73580933 C-7.8363139 22.59927448 -8.6667564 18.0207436 -13.1875 13.5 C-18.72938935 12.72233458 -23.60825736 12.42611501 -28.3125 15.625 C-32.15571731 21.51793321 -32.50815335 27.01104331 -32.6015625 33.8359375 C-32.62092865 34.71528961 -32.6402948 35.59464172 -32.6602478 36.50064087 C-32.71972815 39.29199718 -32.7663021 42.08339543 -32.8125 44.875 C-32.85070885 46.77475694 -32.88976226 48.6744971 -32.9296875 50.57421875 C-33.02540357 55.2160085 -33.1095504 59.85787929 -33.1875 64.5 C-38.7975 64.5 -44.4075 64.5 -50.1875 64.5 C-50.1875 43.05 -50.1875 21.6 -50.1875 -0.5 C-44.5775 -0.5 -38.9675 -0.5 -33.1875 -0.5 C-32.8575 1.81 -32.5275 4.12 -32.1875 6.5 C-31.72859375 6.09007812 -31.2696875 5.68015625 -30.796875 5.2578125 C-30.18328125 4.71898437 -29.5696875 4.18015625 -28.9375 3.625 C-28.33421875 3.09132813 -27.7309375 2.55765625 -27.109375 2.0078125 C-20.10387561 -3.48837198 -8.17417622 -3.120547 0 0 Z " transform="translate(715.1875,57.5)" style="fill: #242020;"/><path d="M0 0 C1.00675781 -0.01160156 2.01351562 -0.02320313 3.05078125 -0.03515625 C12.30127345 0.00121528 17.96201387 2.24043921 24.83203125 8.5390625 C28.18588935 12.23066275 28.5 15.53964609 28.5 20.375 C22.89 20.375 17.28 20.375 11.5 20.375 C10.84 18.725 10.18 17.075 9.5 15.375 C5.79364876 12.11790346 2.39816252 12.04970626 -2.31640625 12.07421875 C-4.72597959 12.40612778 -6.39744217 13.17830609 -8.5 14.375 C-8.83397787 17.24913125 -8.83397787 17.24913125 -8.5 20.375 C-5.70201528 23.03348865 -3.07603263 23.95510819 0.640625 24.8046875 C2.12369141 25.16240234 2.12369141 25.16240234 3.63671875 25.52734375 C5.69569652 26.0052746 7.75558533 26.47929908 9.81640625 26.94921875 C17.47678782 28.80718419 23.5033282 31.22849461 29 37 C31.43502557 42.47880753 31.46020935 47.87623718 29.875 53.65234375 C27.1700995 59.9436525 22.37710493 63.56294919 16.28515625 66.41015625 C6.09753499 70.05464638 -6.64014433 70.0006113 -16.5 65.375 C-22.28804654 62.05316459 -25.8198011 58.48585348 -28.5 52.375 C-28.83 50.065 -29.16 47.755 -29.5 45.375 C-23.89 45.375 -18.28 45.375 -12.5 45.375 C-11.51 47.685 -10.52 49.995 -9.5 52.375 C-4.88296213 55.78281367 -0.0543366 56.16263153 5.5 55.375 C7.91869578 54.2160416 9.62322096 53.25177904 11.5 51.375 C11.91702122 48.4592309 11.91702122 48.4592309 11.5 45.375 C8.69508715 42.72251054 6.07824735 41.79539807 2.359375 40.9453125 C1.37066406 40.70683594 0.38195312 40.46835938 -0.63671875 40.22265625 C-2.69569652 39.7447254 -4.75558533 39.27070092 -6.81640625 38.80078125 C-14.45626845 36.94779262 -21.19017311 34.4144949 -26.5 28.375 C-28.51138947 22.3408316 -28.57756502 15.60994967 -25.8125 9.875 C-18.03804005 1.47017843 -11.06133073 -0.12746732 0 0 Z " transform="translate(886.5,55.625)" style="fill: #262222;"/><path d="M0 0 C4.06027102 3.29349322 7.10844369 6.32142483 8.796875 11.38671875 C8.796875 13.69671875 8.796875 16.00671875 8.796875 18.38671875 C3.186875 18.38671875 -2.423125 18.38671875 -8.203125 18.38671875 C-9.11458333 16.36848958 -10.02604167 14.35026042 -10.9375 12.33203125 C-12.47778333 9.96455873 -13.55712032 9.32762655 -16.203125 8.38671875 C-21.3048592 7.58694194 -25.10907968 7.77007502 -29.640625 10.32421875 C-34.89268218 16.60106757 -35.78109927 23.33099698 -35.5546875 31.37890625 C-34.87821874 37.16647233 -33.24910822 42.34073553 -29.078125 46.51171875 C-23.78663171 48.12217323 -18.59443953 48.16649523 -13.328125 46.44921875 C-10.04558635 43.26322535 -8.86352701 39.62996832 -7.203125 35.38671875 C-1.593125 35.38671875 4.016875 35.38671875 9.796875 35.38671875 C8.56588329 44.00366072 6.57095324 49.69033478 -0.203125 55.38671875 C-8.74368835 61.70489895 -17.66744975 63.64995793 -28.203125 62.38671875 C-37.62369313 59.70006958 -45.01220176 55.46660686 -50.015625 46.94921875 C-54.58834652 37.86394309 -55.85592615 28.23647197 -53.4453125 18.24609375 C-50.16456986 8.79135511 -45.048844 1.41194483 -36.31640625 -3.72265625 C-24.93292058 -8.46391158 -9.81077343 -7.18413019 0 0 Z " transform="translate(255.203125,61.61328125)" style="fill: #13B24E;"/><path d="M0 0 C5.94 0 11.88 0 18 0 C18 6.27 18 12.54 18 19 C22.29 19 26.58 19 31 19 C31 22.96 31 26.92 31 31 C26.71 31 22.42 31 18 31 C18.09340698 36.23306886 18.19947109 41.465668 18.31738281 46.69824219 C18.35571565 48.47909473 18.39056089 50.26002584 18.421875 52.04101562 C18.46743271 54.59794234 18.52544107 57.1543261 18.5859375 59.7109375 C18.59748871 60.50994476 18.60903992 61.30895203 18.62094116 62.13217163 C18.57258944 66.53457212 18.57258944 66.53457212 21 70 C23.43252661 70.46162427 23.43252661 70.46162427 26.125 70.625 C27.03507812 70.69976562 27.94515625 70.77453125 28.8828125 70.8515625 C29.93082031 70.92503906 29.93082031 70.92503906 31 71 C31.02685938 73.14576637 31.04633088 75.29162645 31.0625 77.4375 C31.07410156 78.63246094 31.08570313 79.82742187 31.09765625 81.05859375 C31 84 31 84 30 85 C12.17004591 86.20179801 12.17004591 86.20179801 5 81 C1.32433431 77.13583863 -0.1294478 74.10611894 -0.11352539 68.80395508 C-0.11344986 67.96331009 -0.11337433 67.1226651 -0.11329651 66.25654602 C-0.10813522 65.35333115 -0.10297394 64.45011627 -0.09765625 63.51953125 C-0.0962413 62.59154221 -0.09482635 61.66355316 -0.09336853 60.70744324 C-0.08776937 57.74242942 -0.07521704 54.77749101 -0.0625 51.8125 C-0.05748489 49.80273547 -0.052922 47.79296975 -0.04882812 45.78320312 C-0.03780021 40.85543968 -0.02053617 35.92773263 0 31 C-3.3 31 -6.6 31 -10 31 C-10 27.04 -10 23.08 -10 19 C-6.7 19 -3.4 19 0 19 C0 12.73 0 6.46 0 0 Z " transform="translate(386,38)" style="fill: #13B24E;"/><path d="M0 0 C2.3821875 0.0309375 2.3821875 0.0309375 4.8125 0.0625 C4.8125 5.3425 4.8125 10.6225 4.8125 16.0625 C2.95625 16.145 1.1 16.2275 -0.8125 16.3125 C-6.00927611 16.76492521 -9.29121062 17.36102508 -13.1875 21.0625 C-16.94334658 26.5347979 -17.78673246 30.49516244 -17.796875 37.05859375 C-17.81341125 37.89213882 -17.82994751 38.7256839 -17.84698486 39.58448792 C-17.89521714 42.22306873 -17.91677987 44.86107432 -17.9375 47.5 C-17.96568052 49.29885668 -17.99561085 51.09768685 -18.02734375 52.89648438 C-18.10423602 57.28541449 -18.14498249 61.67256676 -18.1875 66.0625 C-24.1275 66.0625 -30.0675 66.0625 -36.1875 66.0625 C-36.1875 44.6125 -36.1875 23.1625 -36.1875 1.0625 C-30.5775 1.0625 -24.9675 1.0625 -19.1875 1.0625 C-18.8575 4.0325 -18.5275 7.0025 -18.1875 10.0625 C-17.65125 9.32 -17.115 8.5775 -16.5625 7.8125 C-11.85531604 2.36207647 -7.13039767 -0.09260257 0 0 Z " transform="translate(847.1875,55.9375)" style="fill: #262222;"/><path d="M0 0 C0 5.28 0 10.56 0 16 C-1.85625 16.0825 -3.7125 16.165 -5.625 16.25 C-11.8645461 16.7717995 -15.30243206 18.30243206 -19.75 22.75 C-22.86568545 28.3582338 -23.30717903 34.70291424 -23.4140625 41 C-23.43342865 41.7211499 -23.4527948 42.4422998 -23.4727478 43.18530273 C-23.53185263 45.45675353 -23.57864775 47.72825695 -23.625 50 C-23.66324366 51.55340579 -23.70229896 53.10679183 -23.7421875 54.66015625 C-23.83900296 58.43999302 -23.91911425 62.21965565 -24 66 C-29.61 66 -35.22 66 -41 66 C-41 44.55 -41 23.1 -41 1 C-35.39 1 -29.78 1 -24 1 C-23.67 3.97 -23.34 6.94 -23 10 C-22.505 9.278125 -22.01 8.55625 -21.5 7.8125 C-14.99517665 0.49457373 -9.65020306 -0.60313769 0 0 Z " transform="translate(198,56)" style="fill: #11B14C;"/><path d="M0 0 C5.94 0 11.88 0 18 0 C18 21.45 18 42.9 18 65 C12.06 65 6.12 65 0 65 C0 43.55 0 22.1 0 0 Z " transform="translate(350,57)" style="fill: #14B24F;"/><path d="M0 0 C5.94 0 11.88 0 18 0 C18 21.45 18 42.9 18 65 C12.06 65 6.12 65 0 65 C0 43.55 0 22.1 0 0 Z " transform="translate(125,57)" style="fill: #13B24E;"/><path d="M0 0 C4.56285508 -0.08089106 9.12427754 -0.14045647 13.6875 -0.1875 C14.98107422 -0.21263672 16.27464844 -0.23777344 17.60742188 -0.26367188 C18.85458984 -0.27333984 20.10175781 -0.28300781 21.38671875 -0.29296875 C22.53358154 -0.3086792 23.68044434 -0.32438965 24.86206055 -0.34057617 C28.37992719 0.04123539 30.19245628 0.88109323 33 3 C35.9768542 7.46528129 35.49133346 11.76422782 35 17 C33.28977645 21.32056475 31.10020811 22.94971631 27 25 C23.95385742 25.34057617 23.95385742 25.34057617 20.60546875 25.29296875 C19.40341797 25.28330078 18.20136719 25.27363281 16.96289062 25.26367188 C15.71701172 25.23853516 14.47113281 25.21339844 13.1875 25.1875 C11.28967773 25.16719727 11.28967773 25.16719727 9.35351562 25.14648438 C6.23549456 25.11118602 3.11769286 25.05738085 0 25 C0 16.75 0 8.5 0 0 Z " transform="translate(447,48)" style="fill: #FBFBFB;"/><path d="M0 0 C3.2942049 1.63085884 5.29399691 3.97308641 7.375 7 C8 9 8 9 8 14 C-1.24 14 -10.48 14 -20 14 C-18.83333333 5.83333333 -18.83333333 5.83333333 -15 2 C-10.32210653 -0.88182591 -5.32135531 -0.76239389 0 0 Z " transform="translate(774,69)" style="fill: #F3F3F3;"/><path d="M0 0 C5.94 0 11.88 0 18 0 C18 4.95 18 9.9 18 15 C12.06 15 6.12 15 0 15 C0 10.05 0 5.1 0 0 Z " transform="translate(350,32)" style="fill: #1AB453;"/><path d="M0 0 C5.94 0 11.88 0 18 0 C18 4.95 18 9.9 18 15 C12.06 15 6.12 15 0 15 C0 10.05 0 5.1 0 0 Z " transform="translate(125,32)" style="fill: #1AB453;"/></svg>